<svg xmlns="http://www.w3.org/2000/svg" xmlns:xlink="http://www.w3.org/1999/xlink" width="1920" zoomAndPan="magnify" viewBox="0 0 1440 809.999993" height="1080" preserveAspectRatio="xMidYMid meet" version="1.0"><defs><clipPath id="d6aef210e2"><path d="M 75 263 L 280 263 L 280 495 L 75 495 Z M 75 263 " clip-rule="nonzero"/></clipPath><clipPath id="28ae86f88b"><path d="M 166.402344 415.015625 L 131.371094 415.015625 L 131.371094 494.714844 L 75.542969 494.714844 L 75.542969 263.707031 L 176.785156 263.707031 C 236.078125 263.707031 266.507812 288.738281 266.507812 338.78125 C 266.507812 374.199219 249.949219 397.292969 220.679688 408.09375 L 279.96875 490.480469 L 279.96875 494.714844 L 215.304688 494.714844 L 166.402344 415.042969 Z M 131.371094 310.285156 L 131.371094 371.898438 L 172.9375 371.898438 C 199.882812 371.898438 211.429688 362.261719 211.429688 340.691406 C 211.429688 319.121094 200.65625 310.285156 172.9375 310.285156 Z M 131.371094 310.285156 " clip-rule="nonzero"/></clipPath><clipPath id="952dcc1406"><path d="M 303.558594 248 L 359 248 L 359 495 L 303.558594 495 Z M 303.558594 248 " clip-rule="nonzero"/></clipPath><clipPath id="555dfa39e1"><path d="M 303.839844 286.414062 L 303.839844 248.695312 L 358.53125 248.695312 L 358.53125 286.414062 Z M 305.003906 494.691406 L 305.003906 312.222656 L 357.34375 312.222656 L 357.34375 494.714844 Z M 305.003906 494.691406 " clip-rule="nonzero"/></clipPath><clipPath id="03b9bdcaf1"><path d="M 380 312 L 568.453125 312 L 568.453125 563 L 380 563 Z M 380 312 " clip-rule="nonzero"/></clipPath><clipPath id="7980b7e106"><path d="M 470.550781 351.878906 C 495.582031 351.878906 506.355469 363.039062 506.355469 377.660156 C 506.355469 392.28125 496.71875 403.445312 470.550781 403.445312 C 444.378906 403.445312 435.519531 392.28125 435.519531 377.660156 C 435.519531 363.039062 445.515625 351.878906 470.550781 351.878906 Z M 507.132812 491.640625 C 521.753906 491.640625 527.925781 497.816406 527.925781 506.652344 C 527.925781 519.363281 516.742188 525.898438 472.875 525.898438 C 429.007812 525.898438 419.34375 520.5 419.34375 508.175781 C 419.34375 499.316406 428.957031 491.617188 445.128906 491.617188 Z M 471.6875 312.195312 C 419.734375 312.195312 388.914062 334.929688 388.914062 375.722656 C 388.914062 404.191406 403.921875 423.464844 431.253906 432.328125 L 417.796875 439.25 C 402.785156 445.8125 394.699219 455.035156 394.699219 465.421875 C 394.699219 478.128906 403.171875 487.765625 422.808594 490.453125 L 422.808594 492.753906 C 398.160156 497.765625 380.078125 508.925781 380.078125 525.484375 C 380.078125 548.039062 399.402344 562.246094 467.785156 562.453125 L 470.859375 562.453125 C 543.636719 562.195312 568.332031 542.949219 568.332031 505.074219 C 568.332031 475.417969 549.859375 457.722656 509.429688 457.722656 C 490.546875 457.722656 469.75 458.882812 449.753906 458.882812 C 438.179688 458.882812 433.582031 456.199219 433.582031 449.636719 C 433.582031 446.5625 435.128906 443.097656 437.042969 439.613281 L 440.140625 434.601562 C 449.003906 436.539062 459.390625 437.675781 470.550781 437.675781 C 521.753906 437.675781 550.636719 418.039062 550.636719 387.605469 C 550.636719 366.421875 531.390625 357.976562 508.679688 353.710938 L 509.070312 349.476562 C 523.691406 351 535.238281 351.386719 544.101562 351.386719 L 564.121094 351.386719 L 564.121094 312.195312 Z M 471.6875 312.195312 " clip-rule="nonzero"/></clipPath><clipPath id="c11e78aaf4"><path d="M 589.75 247 L 759 247 L 759 495 L 589.75 495 Z M 589.75 247 " clip-rule="nonzero"/></clipPath><clipPath id="db4d6909e8"><path d="M 642.269531 494.714844 L 589.90625 494.714844 L 589.90625 247.53125 L 642.246094 247.53125 L 642.246094 361.101562 L 645.320312 361.101562 C 656.09375 326.070312 677.277344 307.210938 706.910156 307.210938 C 741.550781 307.210938 758.886719 331.46875 758.886719 371.097656 L 758.886719 494.691406 L 706.574219 494.691406 L 706.574219 385.746094 C 706.574219 367.273438 697.710938 354.566406 678.828125 354.566406 C 656.503906 354.566406 642.246094 370.351562 642.246094 393.058594 Z M 642.269531 494.714844 " clip-rule="nonzero"/></clipPath><clipPath id="2150220aad"><path d="M 802.914062 312.59375 L 962.054688 312.59375 L 962.054688 351.507812 L 802.914062 351.507812 Z M 802.914062 312.59375 " clip-rule="nonzero"/></clipPath><clipPath id="d664408927"><path d="M 802.914062 351.476562 L 802.914062 320.421875 C 802.914062 316.109375 806.867188 312.59375 811.722656 312.59375 L 953.242188 312.59375 C 958.101562 312.59375 962.054688 316.109375 962.054688 320.421875 L 962.054688 343.675781 C 962.054688 347.988281 958.101562 351.503906 953.242188 351.503906 L 853.753906 351.503906 C 853.753906 351.503906 802.9375 351.503906 802.9375 351.503906 Z M 802.914062 351.476562 " clip-rule="nonzero"/></clipPath><clipPath id="2cd1ebf69e"><path d="M 802.914062 383.800781 L 890.410156 383.800781 L 890.410156 423.097656 L 802.914062 423.097656 Z M 802.914062 383.800781 " clip-rule="nonzero"/></clipPath><clipPath id="0cb4687eae"><path d="M 812.421875 383.824219 C 812.421875 383.824219 802.914062 383.824219 802.914062 392.609375 L 802.914062 414.59375 C 802.914062 419.296875 807.019531 423.09375 812.085938 423.09375 L 881.164062 423.09375 C 886.226562 423.09375 890.335938 419.296875 890.335938 414.59375 L 890.335938 392.273438 C 890.308594 387.597656 886.203125 383.800781 881.164062 383.800781 L 812.421875 383.800781 Z M 812.421875 383.824219 " clip-rule="nonzero"/></clipPath><clipPath id="493511116e"><path d="M 802.933594 455.21875 L 962.078125 455.21875 L 962.078125 494.851562 L 802.933594 494.851562 Z M 802.933594 455.21875 " clip-rule="nonzero"/></clipPath><clipPath id="d6311f1287"><path d="M 853.855469 455.246094 L 952.285156 455.246094 C 957.683594 455.246094 962.050781 459.171875 962.050781 464.027344 L 962.050781 485.9375 C 962.050781 490.792969 957.65625 494.71875 952.285156 494.71875 L 812.699219 494.71875 C 807.300781 494.695312 802.933594 490.769531 802.933594 485.910156 L 802.933594 455.21875 L 853.855469 455.21875 Z M 853.855469 455.246094 " clip-rule="nonzero"/></clipPath><clipPath id="8ca86947f9"><path d="M 1006.492188 247.535156 L 1058.855469 247.535156 L 1058.855469 494.714844 L 1006.492188 494.714844 Z M 1006.492188 247.535156 " clip-rule="nonzero"/></clipPath><clipPath id="0c8367dd88"><path d="M 1097.347656 247.535156 L 1149.710938 247.535156 L 1149.710938 494.714844 L 1097.347656 494.714844 Z M 1097.347656 247.535156 " clip-rule="nonzero"/></clipPath><clipPath id="b84d142332"><path d="M 1180.210938 312 L 1364 312 L 1364 495 L 1180.210938 495 Z M 1180.210938 312 " clip-rule="nonzero"/></clipPath><clipPath id="f00170e18a"><path d="M 1330.523438 312.222656 L 1213.933594 312.222656 C 1195.71875 312.222656 1180.941406 326.972656 1180.941406 345.210938 L 1180.941406 461.777344 C 1180.941406 479.992188 1195.691406 494.742188 1213.933594 494.742188 L 1330.523438 494.742188 C 1348.734375 494.742188 1363.511719 479.992188 1363.511719 461.777344 L 1363.511719 345.1875 C 1363.511719 326.972656 1348.761719 312.195312 1330.523438 312.195312 Z M 1313.832031 435.632812 C 1313.832031 440.488281 1309.90625 444.441406 1305.050781 444.441406 L 1240.746094 444.441406 C 1235.890625 444.441406 1231.9375 440.515625 1231.9375 435.632812 L 1231.9375 371.355469 C 1231.9375 366.5 1235.867188 362.546875 1240.746094 362.546875 L 1305.050781 362.546875 C 1309.90625 362.546875 1313.832031 366.472656 1313.832031 371.355469 Z M 1313.832031 435.632812 " clip-rule="nonzero"/></clipPath><clipPath id="eea2f53fc3"><path d="M 1179.390625 311 L 1365 311 L 1365 496 L 1179.390625 496 Z M 1179.390625 311 " clip-rule="nonzero"/></clipPath><clipPath id="3b3da0adf4"><path d="M 1330.523438 313.179688 L 1213.933594 313.179688 C 1196.261719 313.179688 1181.921875 327.515625 1181.921875 345.1875 L 1180.96875 345.1875 L 1181.949219 345.1875 L 1181.949219 461.777344 L 1180.96875 461.777344 L 1181.949219 461.777344 C 1181.949219 479.449219 1196.285156 493.785156 1213.957031 493.785156 L 1213.957031 494.769531 L 1213.957031 493.785156 L 1330.523438 493.785156 L 1330.523438 494.769531 L 1330.523438 493.785156 C 1348.191406 493.785156 1362.53125 479.449219 1362.53125 461.777344 L 1363.511719 461.777344 L 1362.53125 461.777344 L 1362.53125 345.1875 L 1363.511719 345.1875 L 1362.53125 345.1875 C 1362.53125 327.515625 1348.191406 313.179688 1330.523438 313.179688 M 1330.523438 311.242188 C 1349.277344 311.242188 1364.46875 326.429688 1364.46875 345.1875 L 1364.46875 461.777344 C 1364.46875 480.535156 1349.277344 495.722656 1330.523438 495.722656 L 1213.933594 495.722656 C 1195.175781 495.722656 1179.984375 480.507812 1179.984375 461.777344 L 1179.984375 345.1875 C 1179.984375 326.429688 1195.175781 311.242188 1213.933594 311.242188 Z M 1314.789062 435.632812 C 1314.789062 441.03125 1310.421875 445.398438 1305.023438 445.398438 L 1240.746094 445.398438 C 1235.347656 445.398438 1230.984375 441.03125 1230.984375 435.632812 L 1231.964844 435.632812 L 1230.984375 435.632812 L 1230.984375 371.355469 L 1231.964844 371.355469 L 1230.984375 371.355469 C 1230.984375 365.957031 1235.347656 361.59375 1240.746094 361.59375 L 1240.746094 362.574219 L 1240.746094 361.59375 L 1305.050781 361.59375 L 1305.050781 362.574219 L 1305.050781 361.59375 C 1310.449219 361.59375 1314.816406 365.957031 1314.816406 371.355469 L 1313.832031 371.355469 L 1314.816406 371.355469 L 1314.816406 435.632812 L 1313.832031 435.632812 L 1314.816406 435.632812 M 1312.878906 435.632812 L 1312.878906 371.355469 C 1312.878906 367.015625 1309.390625 363.53125 1305.050781 363.53125 L 1240.746094 363.53125 C 1236.433594 363.53125 1232.921875 367.042969 1232.921875 371.355469 L 1232.921875 435.632812 C 1232.921875 439.949219 1236.433594 443.460938 1240.746094 443.460938 L 1305.050781 443.460938 C 1309.390625 443.460938 1312.878906 439.949219 1312.878906 435.632812 Z M 1312.878906 435.632812 " clip-rule="nonzero"/></clipPath></defs><g clip-path="url(#d6aef210e2)"><g clip-path="url(#28ae86f88b)"><path fill="#1d1d1b" d="M 62.625 234.617188 L 772.117188 234.617188 L 772.117188 575.382812 L 62.625 575.382812 Z M 62.625 234.617188 " fill-opacity="1" fill-rule="nonzero"/></g></g><g clip-path="url(#952dcc1406)"><g clip-path="url(#555dfa39e1)"><path fill="#1d1d1b" d="M 62.625 234.617188 L 772.117188 234.617188 L 772.117188 575.382812 L 62.625 575.382812 Z M 62.625 234.617188 " fill-opacity="1" fill-rule="nonzero"/></g></g><g clip-path="url(#03b9bdcaf1)"><g clip-path="url(#7980b7e106)"><path fill="#1d1d1b" d="M 62.625 234.617188 L 772.117188 234.617188 L 772.117188 575.382812 L 62.625 575.382812 Z M 62.625 234.617188 " fill-opacity="1" fill-rule="nonzero"/></g></g><g clip-path="url(#c11e78aaf4)"><g clip-path="url(#db4d6909e8)"><path fill="#1d1d1b" d="M 62.625 234.617188 L 772.117188 234.617188 L 772.117188 575.382812 L 62.625 575.382812 Z M 62.625 234.617188 " fill-opacity="1" fill-rule="nonzero"/></g></g><g clip-path="url(#2150220aad)"><g clip-path="url(#d664408927)"><path fill="#ff0092" d="M 802.914062 312.59375 L 962.054688 312.59375 L 962.054688 351.507812 L 802.914062 351.507812 Z M 802.914062 312.59375 " fill-opacity="1" fill-rule="nonzero"/></g></g><g clip-path="url(#2cd1ebf69e)"><g clip-path="url(#0cb4687eae)"><path fill="#ff0092" d="M 802.914062 383.800781 L 890.253906 383.800781 L 890.253906 423.097656 L 802.914062 423.097656 Z M 802.914062 383.800781 " fill-opacity="1" fill-rule="nonzero"/></g></g><g clip-path="url(#493511116e)"><g clip-path="url(#d6311f1287)"><path fill="#ff0092" d="M 802.933594 455.21875 L 962.078125 455.21875 L 962.078125 494.695312 L 802.933594 494.695312 Z M 802.933594 455.21875 " fill-opacity="1" fill-rule="nonzero"/></g></g><g clip-path="url(#8ca86947f9)"><path fill="#1d1d1b" d="M 1006.492188 247.535156 L 1058.847656 247.535156 L 1058.847656 494.789062 L 1006.492188 494.789062 Z M 1006.492188 247.535156 " fill-opacity="1" fill-rule="nonzero"/></g><g clip-path="url(#0c8367dd88)"><path fill="#1d1d1b" d="M 1097.347656 247.535156 L 1149.703125 247.535156 L 1149.703125 494.789062 L 1097.347656 494.789062 Z M 1097.347656 247.535156 " fill-opacity="1" fill-rule="nonzero"/></g><g clip-path="url(#b84d142332)"><g clip-path="url(#f00170e18a)"><path fill="#1d1d1b" d="M 1167.070312 298.324219 L 1377.375 298.324219 L 1377.375 508.628906 L 1167.070312 508.628906 Z M 1167.070312 298.324219 " fill-opacity="1" fill-rule="nonzero"/></g></g><g clip-path="url(#eea2f53fc3)"><g clip-path="url(#3b3da0adf4)"><path fill="#1d1d1b" d="M 1167.070312 298.324219 L 1377.375 298.324219 L 1377.375 508.628906 L 1167.070312 508.628906 Z M 1167.070312 298.324219 " fill-opacity="1" fill-rule="nonzero"/></g></g></svg>